<mxfile host="app.diagrams.net" modified="2022-11-08T08:15:00.431Z" agent="5.0 (Windows NT 10.0; Win64; x64) AppleWebKit/537.36 (KHTML, like Gecko) Chrome/107.0.0.0 Safari/537.36 Edg/107.0.1418.35" etag="w_tB4boiDtwm7wErIK6Z" version="20.5.3" type="github">
  <diagram id="voq_Hp_KXatlv7T8ZGjq" name="第 1 页">
    <mxGraphModel dx="1422" dy="794" grid="1" gridSize="10" guides="1" tooltips="1" connect="1" arrows="1" fold="1" page="1" pageScale="1" pageWidth="827" pageHeight="1169" math="0" shadow="0">
      <root>
        <mxCell id="0" />
        <mxCell id="1" parent="0" />
        <mxCell id="uzzmSmjqvB5U3Lv1lw8r-1" value="&lt;p class=&quot;MsoNormal&quot;&gt;&lt;span style=&quot;color: rgb(51, 51, 51); letter-spacing: 0pt; font-size: 12pt; background: rgb(255, 255, 255);&quot;&gt;&amp;lt;x,0,x&amp;gt;↕r0&lt;/span&gt;&lt;/p&gt;" style="rounded=1;whiteSpace=wrap;html=1;" vertex="1" parent="1">
          <mxGeometry y="160" width="130" height="40" as="geometry" />
        </mxCell>
        <mxCell id="uzzmSmjqvB5U3Lv1lw8r-3" value="&lt;p class=&quot;MsoNormal&quot;&gt;&lt;span style=&quot;color: rgb(51, 51, 51); letter-spacing: 0pt; font-size: 12pt; background: rgb(248, 248, 248);&quot;&gt;&amp;lt;x,0,0&amp;gt;↕r0&lt;/span&gt;&lt;/p&gt;" style="rounded=1;whiteSpace=wrap;html=1;" vertex="1" parent="1">
          <mxGeometry x="150" y="160" width="130" height="40" as="geometry" />
        </mxCell>
        <mxCell id="uzzmSmjqvB5U3Lv1lw8r-4" value="&lt;p class=&quot;MsoNormal&quot;&gt;&lt;span style=&quot;letter-spacing: 0pt; background: rgb(255, 255, 255);&quot;&gt;&lt;font style=&quot;font-size: 12px;&quot;&gt;&amp;lt;1,0,x&amp;gt;↑w1&amp;lt;1,1,x&amp;gt; * ;↕r1&lt;/font&gt;&lt;/span&gt;&lt;/p&gt;" style="rounded=1;whiteSpace=wrap;html=1;" vertex="1" parent="1">
          <mxGeometry x="470" y="160" width="130" height="40" as="geometry" />
        </mxCell>
        <mxCell id="uzzmSmjqvB5U3Lv1lw8r-5" value="&lt;p style=&quot;&quot; class=&quot;MsoNormal&quot;&gt;&lt;span style=&quot;letter-spacing: 0pt; background: rgb(255, 255, 255);&quot;&gt;&amp;lt;x,0,x&amp;gt;↑w1&amp;lt;x,1,x&amp;gt;&lt;/span&gt;&lt;span style=&quot;color: rgb(51, 51, 51); letter-spacing: 0pt; background: rgb(255, 255, 255);&quot;&gt;#↕r1&lt;/span&gt;&lt;/p&gt;" style="rounded=1;whiteSpace=wrap;html=1;" vertex="1" parent="1">
          <mxGeometry x="310" y="160" width="130" height="40" as="geometry" />
        </mxCell>
        <mxCell id="uzzmSmjqvB5U3Lv1lw8r-6" value="&lt;p class=&quot;MsoNormal&quot;&gt;&lt;span style=&quot;mso-spacerun:&#39;yes&#39;;font-family:Helvetica;color:rgb(0,0,0);&#xa;letter-spacing:0.0000pt;text-transform:none;font-style:normal;&#xa;font-size:10.5000pt;mso-font-kerning:1.0000pt;background:rgb(255,255,255);&#xa;mso-shading:rgb(255,255,255);&quot;&gt;&amp;lt;x,0,0&amp;gt;↑w1&amp;lt;1,1,0&amp;gt;#↕r1&lt;/span&gt;&lt;/p&gt;" style="rounded=1;whiteSpace=wrap;html=1;" vertex="1" parent="1">
          <mxGeometry x="620" y="160" width="130" height="40" as="geometry" />
        </mxCell>
        <mxCell id="uzzmSmjqvB5U3Lv1lw8r-7" value="&lt;p class=&quot;MsoNormal&quot;&gt;&lt;span style=&quot;letter-spacing: 0pt; font-size: 10.5pt; background: rgb(255, 255, 255);&quot;&gt;&amp;lt;x,1,1&amp;gt;↑w0&amp;lt;0,0,1&amp;gt;&lt;/span&gt;&lt;span style=&quot;color: rgb(51, 51, 51); letter-spacing: 0pt; background: rgb(255, 255, 255);&quot;&gt;*#↕r0&lt;/span&gt;&lt;/p&gt;" style="rounded=1;whiteSpace=wrap;html=1;" vertex="1" parent="1">
          <mxGeometry x="1070" y="160" width="130" height="40" as="geometry" />
        </mxCell>
        <mxCell id="uzzmSmjqvB5U3Lv1lw8r-8" value="&lt;p class=&quot;MsoNormal&quot;&gt;&lt;span style=&quot;color: rgb(51, 51, 51); letter-spacing: 0pt; font-size: 12pt; background: rgb(255, 255, 255);&quot;&gt;&amp;lt;x,1,1&amp;gt;#↕r1&lt;/span&gt;&lt;/p&gt;" style="rounded=1;whiteSpace=wrap;html=1;" vertex="1" parent="1">
          <mxGeometry x="920" y="160" width="130" height="40" as="geometry" />
        </mxCell>
        <mxCell id="uzzmSmjqvB5U3Lv1lw8r-9" value="&lt;p class=&quot;MsoNormal&quot;&gt;&lt;span style=&quot;color: rgb(51, 51, 51); letter-spacing: 0pt; font-size: 12pt; background: rgb(248, 248, 248);&quot;&gt;&amp;lt;x,1,x&amp;gt;↕r1&lt;/span&gt;&lt;/p&gt;" style="rounded=1;whiteSpace=wrap;html=1;" vertex="1" parent="1">
          <mxGeometry x="770" y="160" width="130" height="40" as="geometry" />
        </mxCell>
        <mxCell id="uzzmSmjqvB5U3Lv1lw8r-10" value="" style="shape=curlyBracket;whiteSpace=wrap;html=1;rounded=1;flipH=1;labelPosition=right;verticalLabelPosition=middle;align=left;verticalAlign=middle;rotation=90;" vertex="1" parent="1">
          <mxGeometry x="125" y="127.5" width="42.5" height="192.5" as="geometry" />
        </mxCell>
        <mxCell id="uzzmSmjqvB5U3Lv1lw8r-12" value="" style="rounded=1;whiteSpace=wrap;html=1;" vertex="1" parent="1">
          <mxGeometry x="80" y="240" width="130" height="40" as="geometry" />
        </mxCell>
        <mxCell id="uzzmSmjqvB5U3Lv1lw8r-13" value="" style="shape=curlyBracket;whiteSpace=wrap;html=1;rounded=1;flipH=1;labelPosition=right;verticalLabelPosition=middle;align=left;verticalAlign=middle;fontSize=12;rotation=90;" vertex="1" parent="1">
          <mxGeometry x="514.38" y="20" width="24.38" height="403.13" as="geometry" />
        </mxCell>
        <mxCell id="uzzmSmjqvB5U3Lv1lw8r-14" value="" style="rounded=1;whiteSpace=wrap;html=1;" vertex="1" parent="1">
          <mxGeometry x="461.57" y="240" width="130" height="40" as="geometry" />
        </mxCell>
        <mxCell id="uzzmSmjqvB5U3Lv1lw8r-17" value="" style="shape=curlyBracket;whiteSpace=wrap;html=1;rounded=1;flipH=1;labelPosition=right;verticalLabelPosition=middle;align=left;verticalAlign=middle;rotation=90;" vertex="1" parent="1">
          <mxGeometry x="900" y="127.5" width="42.5" height="192.5" as="geometry" />
        </mxCell>
        <mxCell id="uzzmSmjqvB5U3Lv1lw8r-18" value="" style="rounded=1;whiteSpace=wrap;html=1;" vertex="1" parent="1">
          <mxGeometry x="856.25" y="240" width="130" height="40" as="geometry" />
        </mxCell>
      </root>
    </mxGraphModel>
  </diagram>
</mxfile>
